<mxfile host="app.diagrams.net" modified="2023-09-25T15:47:50.795Z" agent="Mozilla/5.0 (X11; Linux x86_64) AppleWebKit/537.36 (KHTML, like Gecko) Chrome/117.0.0.0 Safari/537.36" etag="DxknUAsxQeYu4xhC850Q" version="21.7.5" type="device">
  <diagram id="C5RBs43oDa-KdzZeNtuy" name="Page-1">
    <mxGraphModel dx="3388" dy="1140" grid="1" gridSize="10" guides="1" tooltips="1" connect="1" arrows="1" fold="1" page="1" pageScale="1" pageWidth="827" pageHeight="1169" math="0" shadow="0">
      <root>
        <mxCell id="WIyWlLk6GJQsqaUBKTNV-0" />
        <mxCell id="WIyWlLk6GJQsqaUBKTNV-1" parent="WIyWlLk6GJQsqaUBKTNV-0" />
        <mxCell id="6Or6VYkqD4PORaD6Xh0R-0" value="Users" style="rounded=0;whiteSpace=wrap;html=1;" vertex="1" parent="WIyWlLk6GJQsqaUBKTNV-1">
          <mxGeometry x="-760" y="310" width="120" height="60" as="geometry" />
        </mxCell>
        <mxCell id="6Or6VYkqD4PORaD6Xh0R-2" value="ProjectUsers" style="rounded=0;whiteSpace=wrap;html=1;" vertex="1" parent="WIyWlLk6GJQsqaUBKTNV-1">
          <mxGeometry x="-450" y="500" width="120" height="60" as="geometry" />
        </mxCell>
        <mxCell id="6Or6VYkqD4PORaD6Xh0R-58" value="Task" style="rounded=0;whiteSpace=wrap;html=1;" vertex="1" parent="WIyWlLk6GJQsqaUBKTNV-1">
          <mxGeometry x="-170" y="650" width="120" height="60" as="geometry" />
        </mxCell>
        <mxCell id="6Or6VYkqD4PORaD6Xh0R-3" value="Projects" style="rounded=0;whiteSpace=wrap;html=1;" vertex="1" parent="WIyWlLk6GJQsqaUBKTNV-1">
          <mxGeometry x="-880" y="620" width="120" height="60" as="geometry" />
        </mxCell>
        <mxCell id="6Or6VYkqD4PORaD6Xh0R-70" value="Message" style="rounded=0;whiteSpace=wrap;html=1;" vertex="1" parent="WIyWlLk6GJQsqaUBKTNV-1">
          <mxGeometry x="-480" y="975" width="120" height="60" as="geometry" />
        </mxCell>
        <mxCell id="6Or6VYkqD4PORaD6Xh0R-29" value="projectuser_id" style="ellipse;whiteSpace=wrap;html=1;" vertex="1" parent="WIyWlLk6GJQsqaUBKTNV-1">
          <mxGeometry x="-550" y="410" width="100" height="60" as="geometry" />
        </mxCell>
        <mxCell id="6Or6VYkqD4PORaD6Xh0R-54" value="project_id" style="ellipse;whiteSpace=wrap;html=1;fontStyle=4" vertex="1" parent="WIyWlLk6GJQsqaUBKTNV-1">
          <mxGeometry x="-440" y="410" width="100" height="60" as="geometry" />
        </mxCell>
        <mxCell id="6Or6VYkqD4PORaD6Xh0R-55" value="user_id" style="ellipse;whiteSpace=wrap;html=1;fontStyle=4" vertex="1" parent="WIyWlLk6GJQsqaUBKTNV-1">
          <mxGeometry x="-330" y="410" width="100" height="60" as="geometry" />
        </mxCell>
        <mxCell id="6Or6VYkqD4PORaD6Xh0R-56" value="is_projectowner" style="ellipse;whiteSpace=wrap;html=1;" vertex="1" parent="WIyWlLk6GJQsqaUBKTNV-1">
          <mxGeometry x="-290" y="480" width="100" height="60" as="geometry" />
        </mxCell>
        <mxCell id="6Or6VYkqD4PORaD6Xh0R-59" value="task_id" style="ellipse;whiteSpace=wrap;html=1;" vertex="1" parent="WIyWlLk6GJQsqaUBKTNV-1">
          <mxGeometry x="-110" y="550" width="100" height="60" as="geometry" />
        </mxCell>
        <mxCell id="6Or6VYkqD4PORaD6Xh0R-60" value="projectuser_id" style="ellipse;whiteSpace=wrap;html=1;fontStyle=4" vertex="1" parent="WIyWlLk6GJQsqaUBKTNV-1">
          <mxGeometry x="10" y="550" width="100" height="60" as="geometry" />
        </mxCell>
        <mxCell id="6Or6VYkqD4PORaD6Xh0R-61" value="task_creator_id" style="ellipse;whiteSpace=wrap;html=1;fontStyle=4" vertex="1" parent="WIyWlLk6GJQsqaUBKTNV-1">
          <mxGeometry x="150" y="640" width="100" height="60" as="geometry" />
        </mxCell>
        <mxCell id="6Or6VYkqD4PORaD6Xh0R-62" value="task_name" style="ellipse;whiteSpace=wrap;html=1;" vertex="1" parent="WIyWlLk6GJQsqaUBKTNV-1">
          <mxGeometry x="120" y="570" width="100" height="60" as="geometry" />
        </mxCell>
        <mxCell id="6Or6VYkqD4PORaD6Xh0R-63" value="assignee" style="ellipse;whiteSpace=wrap;html=1;fontStyle=4" vertex="1" parent="WIyWlLk6GJQsqaUBKTNV-1">
          <mxGeometry x="130" y="710" width="100" height="60" as="geometry" />
        </mxCell>
        <mxCell id="6Or6VYkqD4PORaD6Xh0R-64" value="task_description" style="ellipse;whiteSpace=wrap;html=1;" vertex="1" parent="WIyWlLk6GJQsqaUBKTNV-1">
          <mxGeometry x="110" y="780" width="100" height="60" as="geometry" />
        </mxCell>
        <mxCell id="6Or6VYkqD4PORaD6Xh0R-65" value="start_date" style="ellipse;whiteSpace=wrap;html=1;" vertex="1" parent="WIyWlLk6GJQsqaUBKTNV-1">
          <mxGeometry x="40" y="840" width="100" height="60" as="geometry" />
        </mxCell>
        <mxCell id="6Or6VYkqD4PORaD6Xh0R-66" value="end_date" style="ellipse;whiteSpace=wrap;html=1;" vertex="1" parent="WIyWlLk6GJQsqaUBKTNV-1">
          <mxGeometry x="-60" y="880" width="100" height="60" as="geometry" />
        </mxCell>
        <mxCell id="6Or6VYkqD4PORaD6Xh0R-67" value="status" style="ellipse;whiteSpace=wrap;html=1;" vertex="1" parent="WIyWlLk6GJQsqaUBKTNV-1">
          <mxGeometry x="-160" y="860" width="100" height="60" as="geometry" />
        </mxCell>
        <mxCell id="6Or6VYkqD4PORaD6Xh0R-68" value="section" style="ellipse;whiteSpace=wrap;html=1;" vertex="1" parent="WIyWlLk6GJQsqaUBKTNV-1">
          <mxGeometry x="-240" y="810" width="100" height="60" as="geometry" />
        </mxCell>
        <mxCell id="6Or6VYkqD4PORaD6Xh0R-69" value="priority" style="ellipse;whiteSpace=wrap;html=1;" vertex="1" parent="WIyWlLk6GJQsqaUBKTNV-1">
          <mxGeometry x="-240" y="730" width="100" height="60" as="geometry" />
        </mxCell>
        <mxCell id="6Or6VYkqD4PORaD6Xh0R-30" value="project_id" style="ellipse;whiteSpace=wrap;html=1;" vertex="1" parent="WIyWlLk6GJQsqaUBKTNV-1">
          <mxGeometry x="-940" y="450" width="100" height="60" as="geometry" />
        </mxCell>
        <mxCell id="6Or6VYkqD4PORaD6Xh0R-48" value="project_name" style="ellipse;whiteSpace=wrap;html=1;" vertex="1" parent="WIyWlLk6GJQsqaUBKTNV-1">
          <mxGeometry x="-1020" y="500" width="100" height="60" as="geometry" />
        </mxCell>
        <mxCell id="6Or6VYkqD4PORaD6Xh0R-49" value="description" style="ellipse;whiteSpace=wrap;html=1;" vertex="1" parent="WIyWlLk6GJQsqaUBKTNV-1">
          <mxGeometry x="-1070" y="560" width="100" height="60" as="geometry" />
        </mxCell>
        <mxCell id="6Or6VYkqD4PORaD6Xh0R-50" value="start_date" style="ellipse;whiteSpace=wrap;html=1;" vertex="1" parent="WIyWlLk6GJQsqaUBKTNV-1">
          <mxGeometry x="-1130" y="620" width="100" height="60" as="geometry" />
        </mxCell>
        <mxCell id="6Or6VYkqD4PORaD6Xh0R-51" value="end_date" style="ellipse;whiteSpace=wrap;html=1;" vertex="1" parent="WIyWlLk6GJQsqaUBKTNV-1">
          <mxGeometry x="-1100" y="690" width="100" height="60" as="geometry" />
        </mxCell>
        <mxCell id="6Or6VYkqD4PORaD6Xh0R-52" value="priority" style="ellipse;whiteSpace=wrap;html=1;" vertex="1" parent="WIyWlLk6GJQsqaUBKTNV-1">
          <mxGeometry x="-1047" y="750" width="100" height="60" as="geometry" />
        </mxCell>
        <mxCell id="6Or6VYkqD4PORaD6Xh0R-53" value="background_color" style="ellipse;whiteSpace=wrap;html=1;" vertex="1" parent="WIyWlLk6GJQsqaUBKTNV-1">
          <mxGeometry x="-940" y="750" width="100" height="60" as="geometry" />
        </mxCell>
        <mxCell id="6Or6VYkqD4PORaD6Xh0R-71" value="message_id" style="ellipse;whiteSpace=wrap;html=1;" vertex="1" parent="WIyWlLk6GJQsqaUBKTNV-1">
          <mxGeometry x="-640" y="935" width="100" height="60" as="geometry" />
        </mxCell>
        <mxCell id="6Or6VYkqD4PORaD6Xh0R-72" value="task_id" style="ellipse;whiteSpace=wrap;html=1;fontStyle=4" vertex="1" parent="WIyWlLk6GJQsqaUBKTNV-1">
          <mxGeometry x="-640" y="995" width="100" height="60" as="geometry" />
        </mxCell>
        <mxCell id="6Or6VYkqD4PORaD6Xh0R-73" value="sender_id" style="ellipse;whiteSpace=wrap;html=1;fontStyle=4" vertex="1" parent="WIyWlLk6GJQsqaUBKTNV-1">
          <mxGeometry x="-700" y="1055" width="100" height="60" as="geometry" />
        </mxCell>
        <mxCell id="6Or6VYkqD4PORaD6Xh0R-74" value="text" style="ellipse;whiteSpace=wrap;html=1;" vertex="1" parent="WIyWlLk6GJQsqaUBKTNV-1">
          <mxGeometry x="-720" y="1125" width="100" height="60" as="geometry" />
        </mxCell>
        <mxCell id="6Or6VYkqD4PORaD6Xh0R-75" value="timestamp" style="ellipse;whiteSpace=wrap;html=1;" vertex="1" parent="WIyWlLk6GJQsqaUBKTNV-1">
          <mxGeometry x="-687" y="1185" width="100" height="60" as="geometry" />
        </mxCell>
        <mxCell id="6Or6VYkqD4PORaD6Xh0R-76" value="recipient_id" style="ellipse;whiteSpace=wrap;html=1;fontStyle=4" vertex="1" parent="WIyWlLk6GJQsqaUBKTNV-1">
          <mxGeometry x="-587" y="1205" width="100" height="60" as="geometry" />
        </mxCell>
        <mxCell id="6Or6VYkqD4PORaD6Xh0R-77" value="is_read" style="ellipse;whiteSpace=wrap;html=1;" vertex="1" parent="WIyWlLk6GJQsqaUBKTNV-1">
          <mxGeometry x="-480" y="1195" width="100" height="60" as="geometry" />
        </mxCell>
        <mxCell id="6Or6VYkqD4PORaD6Xh0R-78" value="is_task_msg" style="ellipse;whiteSpace=wrap;html=1;" vertex="1" parent="WIyWlLk6GJQsqaUBKTNV-1">
          <mxGeometry x="-380" y="1155" width="100" height="60" as="geometry" />
        </mxCell>
        <mxCell id="6Or6VYkqD4PORaD6Xh0R-79" value="is_task_msg" style="ellipse;whiteSpace=wrap;html=1;" vertex="1" parent="WIyWlLk6GJQsqaUBKTNV-1">
          <mxGeometry x="-310" y="1104" width="100" height="60" as="geometry" />
        </mxCell>
        <mxCell id="6Or6VYkqD4PORaD6Xh0R-80" value="is_newtask_message" style="ellipse;whiteSpace=wrap;html=1;" vertex="1" parent="WIyWlLk6GJQsqaUBKTNV-1">
          <mxGeometry x="-280" y="1025" width="100" height="60" as="geometry" />
        </mxCell>
        <mxCell id="6Or6VYkqD4PORaD6Xh0R-81" value="project_id" style="ellipse;whiteSpace=wrap;html=1;fontStyle=4" vertex="1" parent="WIyWlLk6GJQsqaUBKTNV-1">
          <mxGeometry x="-270" y="955" width="100" height="60" as="geometry" />
        </mxCell>
        <mxCell id="6Or6VYkqD4PORaD6Xh0R-31" value="user_id" style="ellipse;whiteSpace=wrap;html=1;" vertex="1" parent="WIyWlLk6GJQsqaUBKTNV-1">
          <mxGeometry x="-950" y="265" width="100" height="60" as="geometry" />
        </mxCell>
        <mxCell id="6Or6VYkqD4PORaD6Xh0R-32" value="username" style="ellipse;whiteSpace=wrap;html=1;" vertex="1" parent="WIyWlLk6GJQsqaUBKTNV-1">
          <mxGeometry x="-940" y="195" width="100" height="60" as="geometry" />
        </mxCell>
        <mxCell id="6Or6VYkqD4PORaD6Xh0R-33" value="name" style="ellipse;whiteSpace=wrap;html=1;" vertex="1" parent="WIyWlLk6GJQsqaUBKTNV-1">
          <mxGeometry x="-870" y="135" width="100" height="60" as="geometry" />
        </mxCell>
        <mxCell id="6Or6VYkqD4PORaD6Xh0R-35" value="email" style="ellipse;whiteSpace=wrap;html=1;" vertex="1" parent="WIyWlLk6GJQsqaUBKTNV-1">
          <mxGeometry x="-760" y="115" width="100" height="60" as="geometry" />
        </mxCell>
        <mxCell id="6Or6VYkqD4PORaD6Xh0R-36" value="password" style="ellipse;whiteSpace=wrap;html=1;" vertex="1" parent="WIyWlLk6GJQsqaUBKTNV-1">
          <mxGeometry x="-650" y="135" width="100" height="60" as="geometry" />
        </mxCell>
        <mxCell id="6Or6VYkqD4PORaD6Xh0R-37" value="profile_picture" style="ellipse;whiteSpace=wrap;html=1;" vertex="1" parent="WIyWlLk6GJQsqaUBKTNV-1">
          <mxGeometry x="-590" y="205" width="100" height="60" as="geometry" />
        </mxCell>
        <mxCell id="6Or6VYkqD4PORaD6Xh0R-38" value="background_color" style="ellipse;whiteSpace=wrap;html=1;" vertex="1" parent="WIyWlLk6GJQsqaUBKTNV-1">
          <mxGeometry x="-940" y="345" width="100" height="60" as="geometry" />
        </mxCell>
        <mxCell id="6Or6VYkqD4PORaD6Xh0R-39" value="about" style="ellipse;whiteSpace=wrap;html=1;" vertex="1" parent="WIyWlLk6GJQsqaUBKTNV-1">
          <mxGeometry x="-570" y="275" width="100" height="60" as="geometry" />
        </mxCell>
        <mxCell id="6Or6VYkqD4PORaD6Xh0R-82" value="" style="endArrow=none;html=1;rounded=0;exitX=1;exitY=0.5;exitDx=0;exitDy=0;entryX=0;entryY=1;entryDx=0;entryDy=0;" edge="1" parent="WIyWlLk6GJQsqaUBKTNV-1" source="6Or6VYkqD4PORaD6Xh0R-0" target="6Or6VYkqD4PORaD6Xh0R-39">
          <mxGeometry width="50" height="50" relative="1" as="geometry">
            <mxPoint x="-620" y="370" as="sourcePoint" />
            <mxPoint x="-570" y="320" as="targetPoint" />
          </mxGeometry>
        </mxCell>
        <mxCell id="6Or6VYkqD4PORaD6Xh0R-141" value="1" style="endArrow=none;html=1;rounded=0;exitX=0.5;exitY=1;exitDx=0;exitDy=0;entryX=0.5;entryY=0;entryDx=0;entryDy=0;" edge="1" parent="WIyWlLk6GJQsqaUBKTNV-1" source="6Or6VYkqD4PORaD6Xh0R-0" target="6Or6VYkqD4PORaD6Xh0R-140">
          <mxGeometry width="50" height="50" relative="1" as="geometry">
            <mxPoint x="-630" y="350" as="sourcePoint" />
            <mxPoint x="-545" y="336" as="targetPoint" />
          </mxGeometry>
        </mxCell>
        <mxCell id="6Or6VYkqD4PORaD6Xh0R-143" value="M" style="endArrow=none;html=1;rounded=0;exitX=0;exitY=0.5;exitDx=0;exitDy=0;entryX=1;entryY=0.5;entryDx=0;entryDy=0;" edge="1" parent="WIyWlLk6GJQsqaUBKTNV-1" source="6Or6VYkqD4PORaD6Xh0R-2" target="6Or6VYkqD4PORaD6Xh0R-140">
          <mxGeometry width="50" height="50" relative="1" as="geometry">
            <mxPoint x="-690" y="380" as="sourcePoint" />
            <mxPoint x="-720" y="510" as="targetPoint" />
          </mxGeometry>
        </mxCell>
        <mxCell id="6Or6VYkqD4PORaD6Xh0R-142" value="1" style="endArrow=none;html=1;rounded=0;exitX=1;exitY=0;exitDx=0;exitDy=0;entryX=0;entryY=0.5;entryDx=0;entryDy=0;" edge="1" parent="WIyWlLk6GJQsqaUBKTNV-1" source="6Or6VYkqD4PORaD6Xh0R-3" target="6Or6VYkqD4PORaD6Xh0R-144">
          <mxGeometry width="50" height="50" relative="1" as="geometry">
            <mxPoint x="-690" y="380" as="sourcePoint" />
            <mxPoint x="-640" y="610" as="targetPoint" />
          </mxGeometry>
        </mxCell>
        <mxCell id="6Or6VYkqD4PORaD6Xh0R-150" value="1" style="endArrow=none;html=1;rounded=0;exitX=0.75;exitY=1;exitDx=0;exitDy=0;entryX=0.5;entryY=0;entryDx=0;entryDy=0;" edge="1" target="6Or6VYkqD4PORaD6Xh0R-151" parent="WIyWlLk6GJQsqaUBKTNV-1" source="6Or6VYkqD4PORaD6Xh0R-3">
          <mxGeometry width="50" height="50" relative="1" as="geometry">
            <mxPoint x="-730" y="720" as="sourcePoint" />
            <mxPoint x="-610" y="710" as="targetPoint" />
          </mxGeometry>
        </mxCell>
        <mxCell id="6Or6VYkqD4PORaD6Xh0R-153" value="1" style="endArrow=none;html=1;rounded=0;exitX=1;exitY=1;exitDx=0;exitDy=0;entryX=0;entryY=0.5;entryDx=0;entryDy=0;" edge="1" target="6Or6VYkqD4PORaD6Xh0R-154" parent="WIyWlLk6GJQsqaUBKTNV-1" source="6Or6VYkqD4PORaD6Xh0R-3">
          <mxGeometry width="50" height="50" relative="1" as="geometry">
            <mxPoint x="-710" y="710" as="sourcePoint" />
            <mxPoint x="-480" y="710" as="targetPoint" />
          </mxGeometry>
        </mxCell>
        <mxCell id="6Or6VYkqD4PORaD6Xh0R-155" value="M" style="endArrow=none;html=1;rounded=0;exitX=0.5;exitY=1;exitDx=0;exitDy=0;entryX=0.5;entryY=0;entryDx=0;entryDy=0;" edge="1" parent="WIyWlLk6GJQsqaUBKTNV-1" source="6Or6VYkqD4PORaD6Xh0R-154" target="6Or6VYkqD4PORaD6Xh0R-70">
          <mxGeometry width="50" height="50" relative="1" as="geometry">
            <mxPoint x="-530" y="845" as="sourcePoint" />
            <mxPoint x="-350" y="955" as="targetPoint" />
          </mxGeometry>
        </mxCell>
        <mxCell id="6Or6VYkqD4PORaD6Xh0R-156" value="M" style="endArrow=none;html=1;rounded=0;exitX=0;exitY=0.75;exitDx=0;exitDy=0;entryX=1;entryY=0.5;entryDx=0;entryDy=0;" edge="1" parent="WIyWlLk6GJQsqaUBKTNV-1" source="6Or6VYkqD4PORaD6Xh0R-58" target="6Or6VYkqD4PORaD6Xh0R-154">
          <mxGeometry width="50" height="50" relative="1" as="geometry">
            <mxPoint x="-550" y="870" as="sourcePoint" />
            <mxPoint x="-330" y="1050" as="targetPoint" />
          </mxGeometry>
        </mxCell>
        <mxCell id="6Or6VYkqD4PORaD6Xh0R-152" value="1" style="endArrow=none;html=1;rounded=0;exitX=0.5;exitY=1;exitDx=0;exitDy=0;entryX=0.75;entryY=0;entryDx=0;entryDy=0;" edge="1" parent="WIyWlLk6GJQsqaUBKTNV-1" source="6Or6VYkqD4PORaD6Xh0R-151" target="6Or6VYkqD4PORaD6Xh0R-124">
          <mxGeometry width="50" height="50" relative="1" as="geometry">
            <mxPoint x="-590" y="700" as="sourcePoint" />
            <mxPoint x="-500" y="750" as="targetPoint" />
          </mxGeometry>
        </mxCell>
        <mxCell id="6Or6VYkqD4PORaD6Xh0R-147" value="1" style="endArrow=none;html=1;rounded=0;exitX=1;exitY=1;exitDx=0;exitDy=0;entryX=0;entryY=0;entryDx=0;entryDy=0;" edge="1" parent="WIyWlLk6GJQsqaUBKTNV-1" source="6Or6VYkqD4PORaD6Xh0R-2" target="6Or6VYkqD4PORaD6Xh0R-148">
          <mxGeometry x="0.0164" width="50" height="50" relative="1" as="geometry">
            <mxPoint x="-750" y="630" as="sourcePoint" />
            <mxPoint x="-280" y="630" as="targetPoint" />
            <mxPoint as="offset" />
          </mxGeometry>
        </mxCell>
        <mxCell id="6Or6VYkqD4PORaD6Xh0R-145" value="M" style="endArrow=none;html=1;rounded=0;exitX=1;exitY=0.5;exitDx=0;exitDy=0;entryX=0;entryY=0.75;entryDx=0;entryDy=0;" edge="1" parent="WIyWlLk6GJQsqaUBKTNV-1" source="6Or6VYkqD4PORaD6Xh0R-144" target="6Or6VYkqD4PORaD6Xh0R-2">
          <mxGeometry width="50" height="50" relative="1" as="geometry">
            <mxPoint x="-750" y="630" as="sourcePoint" />
            <mxPoint x="-620" y="595" as="targetPoint" />
          </mxGeometry>
        </mxCell>
        <mxCell id="6Or6VYkqD4PORaD6Xh0R-149" value="M" style="endArrow=none;html=1;rounded=0;exitX=1;exitY=1;exitDx=0;exitDy=0;entryX=0;entryY=0.5;entryDx=0;entryDy=0;" edge="1" parent="WIyWlLk6GJQsqaUBKTNV-1" source="6Or6VYkqD4PORaD6Xh0R-148" target="6Or6VYkqD4PORaD6Xh0R-58">
          <mxGeometry width="50" height="50" relative="1" as="geometry">
            <mxPoint x="-610" y="610" as="sourcePoint" />
            <mxPoint x="-440" y="555" as="targetPoint" />
          </mxGeometry>
        </mxCell>
        <mxCell id="6Or6VYkqD4PORaD6Xh0R-108" value="" style="endArrow=none;html=1;rounded=0;exitX=0.25;exitY=0;exitDx=0;exitDy=0;entryX=0.5;entryY=1;entryDx=0;entryDy=0;" edge="1" parent="WIyWlLk6GJQsqaUBKTNV-1" source="6Or6VYkqD4PORaD6Xh0R-2" target="6Or6VYkqD4PORaD6Xh0R-29">
          <mxGeometry width="50" height="50" relative="1" as="geometry">
            <mxPoint x="-560" y="490" as="sourcePoint" />
            <mxPoint x="-476" y="476" as="targetPoint" />
          </mxGeometry>
        </mxCell>
        <mxCell id="6Or6VYkqD4PORaD6Xh0R-109" value="" style="endArrow=none;html=1;rounded=0;exitX=0.5;exitY=0;exitDx=0;exitDy=0;entryX=0.5;entryY=1;entryDx=0;entryDy=0;" edge="1" parent="WIyWlLk6GJQsqaUBKTNV-1" source="6Or6VYkqD4PORaD6Xh0R-2" target="6Or6VYkqD4PORaD6Xh0R-54">
          <mxGeometry width="50" height="50" relative="1" as="geometry">
            <mxPoint x="-550" y="500" as="sourcePoint" />
            <mxPoint x="-490" y="480" as="targetPoint" />
          </mxGeometry>
        </mxCell>
        <mxCell id="6Or6VYkqD4PORaD6Xh0R-110" value="" style="endArrow=none;html=1;rounded=0;exitX=0.75;exitY=0;exitDx=0;exitDy=0;entryX=0;entryY=1;entryDx=0;entryDy=0;" edge="1" parent="WIyWlLk6GJQsqaUBKTNV-1" source="6Or6VYkqD4PORaD6Xh0R-2" target="6Or6VYkqD4PORaD6Xh0R-55">
          <mxGeometry width="50" height="50" relative="1" as="geometry">
            <mxPoint x="-380" y="510" as="sourcePoint" />
            <mxPoint x="-380" y="480" as="targetPoint" />
          </mxGeometry>
        </mxCell>
        <mxCell id="6Or6VYkqD4PORaD6Xh0R-111" value="" style="endArrow=none;html=1;rounded=0;exitX=1;exitY=0.25;exitDx=0;exitDy=0;entryX=0;entryY=0.5;entryDx=0;entryDy=0;" edge="1" parent="WIyWlLk6GJQsqaUBKTNV-1" source="6Or6VYkqD4PORaD6Xh0R-2" target="6Or6VYkqD4PORaD6Xh0R-56">
          <mxGeometry width="50" height="50" relative="1" as="geometry">
            <mxPoint x="-370" y="520" as="sourcePoint" />
            <mxPoint x="-305" y="471" as="targetPoint" />
          </mxGeometry>
        </mxCell>
        <mxCell id="6Or6VYkqD4PORaD6Xh0R-115" value="" style="endArrow=none;html=1;rounded=0;exitX=1;exitY=0;exitDx=0;exitDy=0;entryX=0;entryY=0.5;entryDx=0;entryDy=0;" edge="1" parent="WIyWlLk6GJQsqaUBKTNV-1" source="6Or6VYkqD4PORaD6Xh0R-58" target="6Or6VYkqD4PORaD6Xh0R-62">
          <mxGeometry width="50" height="50" relative="1" as="geometry">
            <mxPoint x="-40" y="685" as="sourcePoint" />
            <mxPoint x="180" y="620" as="targetPoint" />
          </mxGeometry>
        </mxCell>
        <mxCell id="6Or6VYkqD4PORaD6Xh0R-116" value="" style="endArrow=none;html=1;rounded=0;exitX=1;exitY=0.25;exitDx=0;exitDy=0;entryX=0;entryY=0.5;entryDx=0;entryDy=0;" edge="1" parent="WIyWlLk6GJQsqaUBKTNV-1" source="6Or6VYkqD4PORaD6Xh0R-58" target="6Or6VYkqD4PORaD6Xh0R-61">
          <mxGeometry width="50" height="50" relative="1" as="geometry">
            <mxPoint x="-30" y="695" as="sourcePoint" />
            <mxPoint x="200" y="640" as="targetPoint" />
          </mxGeometry>
        </mxCell>
        <mxCell id="6Or6VYkqD4PORaD6Xh0R-118" value="" style="endArrow=none;html=1;rounded=0;exitX=1;exitY=0.75;exitDx=0;exitDy=0;entryX=0;entryY=0;entryDx=0;entryDy=0;" edge="1" parent="WIyWlLk6GJQsqaUBKTNV-1" source="6Or6VYkqD4PORaD6Xh0R-58" target="6Or6VYkqD4PORaD6Xh0R-64">
          <mxGeometry width="50" height="50" relative="1" as="geometry">
            <mxPoint x="-20" y="705" as="sourcePoint" />
            <mxPoint x="180" y="710" as="targetPoint" />
          </mxGeometry>
        </mxCell>
        <mxCell id="6Or6VYkqD4PORaD6Xh0R-119" value="" style="endArrow=none;html=1;rounded=0;exitX=1;exitY=0.75;exitDx=0;exitDy=0;entryX=0.5;entryY=0;entryDx=0;entryDy=0;" edge="1" parent="WIyWlLk6GJQsqaUBKTNV-1" source="6Or6VYkqD4PORaD6Xh0R-58" target="6Or6VYkqD4PORaD6Xh0R-65">
          <mxGeometry width="50" height="50" relative="1" as="geometry">
            <mxPoint x="-10" y="715" as="sourcePoint" />
            <mxPoint x="135" y="829" as="targetPoint" />
          </mxGeometry>
        </mxCell>
        <mxCell id="6Or6VYkqD4PORaD6Xh0R-120" value="" style="endArrow=none;html=1;rounded=0;exitX=1;exitY=1;exitDx=0;exitDy=0;entryX=0.5;entryY=0;entryDx=0;entryDy=0;" edge="1" parent="WIyWlLk6GJQsqaUBKTNV-1" source="6Or6VYkqD4PORaD6Xh0R-58" target="6Or6VYkqD4PORaD6Xh0R-66">
          <mxGeometry width="50" height="50" relative="1" as="geometry">
            <mxPoint y="725" as="sourcePoint" />
            <mxPoint x="110" y="880" as="targetPoint" />
          </mxGeometry>
        </mxCell>
        <mxCell id="6Or6VYkqD4PORaD6Xh0R-121" value="" style="endArrow=none;html=1;rounded=0;exitX=0.75;exitY=1;exitDx=0;exitDy=0;entryX=0.5;entryY=0;entryDx=0;entryDy=0;" edge="1" parent="WIyWlLk6GJQsqaUBKTNV-1" source="6Or6VYkqD4PORaD6Xh0R-58" target="6Or6VYkqD4PORaD6Xh0R-67">
          <mxGeometry width="50" height="50" relative="1" as="geometry">
            <mxPoint x="10" y="735" as="sourcePoint" />
            <mxPoint y="890" as="targetPoint" />
          </mxGeometry>
        </mxCell>
        <mxCell id="6Or6VYkqD4PORaD6Xh0R-122" value="" style="endArrow=none;html=1;rounded=0;exitX=0.5;exitY=1;exitDx=0;exitDy=0;entryX=1;entryY=0;entryDx=0;entryDy=0;" edge="1" parent="WIyWlLk6GJQsqaUBKTNV-1" source="6Or6VYkqD4PORaD6Xh0R-58" target="6Or6VYkqD4PORaD6Xh0R-68">
          <mxGeometry width="50" height="50" relative="1" as="geometry">
            <mxPoint x="20" y="745" as="sourcePoint" />
            <mxPoint x="-75" y="899" as="targetPoint" />
          </mxGeometry>
        </mxCell>
        <mxCell id="6Or6VYkqD4PORaD6Xh0R-123" value="" style="endArrow=none;html=1;rounded=0;exitX=0.25;exitY=1;exitDx=0;exitDy=0;entryX=1;entryY=0;entryDx=0;entryDy=0;" edge="1" parent="WIyWlLk6GJQsqaUBKTNV-1" source="6Or6VYkqD4PORaD6Xh0R-58" target="6Or6VYkqD4PORaD6Xh0R-69">
          <mxGeometry width="50" height="50" relative="1" as="geometry">
            <mxPoint x="30" y="755" as="sourcePoint" />
            <mxPoint x="-130" y="850" as="targetPoint" />
          </mxGeometry>
        </mxCell>
        <mxCell id="6Or6VYkqD4PORaD6Xh0R-117" value="" style="endArrow=none;html=1;rounded=0;exitX=1;exitY=0.5;exitDx=0;exitDy=0;entryX=0;entryY=0;entryDx=0;entryDy=0;" edge="1" parent="WIyWlLk6GJQsqaUBKTNV-1" source="6Or6VYkqD4PORaD6Xh0R-58" target="6Or6VYkqD4PORaD6Xh0R-63">
          <mxGeometry width="50" height="50" relative="1" as="geometry">
            <mxPoint x="-20" y="705" as="sourcePoint" />
            <mxPoint x="195" y="689" as="targetPoint" />
          </mxGeometry>
        </mxCell>
        <mxCell id="6Or6VYkqD4PORaD6Xh0R-113" value="" style="endArrow=none;html=1;rounded=0;exitX=0.5;exitY=0;exitDx=0;exitDy=0;entryX=0;entryY=1;entryDx=0;entryDy=0;" edge="1" parent="WIyWlLk6GJQsqaUBKTNV-1" source="6Or6VYkqD4PORaD6Xh0R-58" target="6Or6VYkqD4PORaD6Xh0R-60">
          <mxGeometry width="50" height="50" relative="1" as="geometry">
            <mxPoint x="-40" y="685" as="sourcePoint" />
            <mxPoint x="180" y="620" as="targetPoint" />
          </mxGeometry>
        </mxCell>
        <mxCell id="6Or6VYkqD4PORaD6Xh0R-114" value="" style="endArrow=none;html=1;rounded=0;exitX=0.25;exitY=0;exitDx=0;exitDy=0;entryX=0.5;entryY=1;entryDx=0;entryDy=0;" edge="1" parent="WIyWlLk6GJQsqaUBKTNV-1" source="6Or6VYkqD4PORaD6Xh0R-58" target="6Or6VYkqD4PORaD6Xh0R-59">
          <mxGeometry width="50" height="50" relative="1" as="geometry">
            <mxPoint x="-30" y="695" as="sourcePoint" />
            <mxPoint x="70" y="620" as="targetPoint" />
          </mxGeometry>
        </mxCell>
        <mxCell id="6Or6VYkqD4PORaD6Xh0R-83" value="" style="endArrow=none;html=1;rounded=0;exitX=1;exitY=0.25;exitDx=0;exitDy=0;entryX=0;entryY=0.5;entryDx=0;entryDy=0;" edge="1" parent="WIyWlLk6GJQsqaUBKTNV-1" source="6Or6VYkqD4PORaD6Xh0R-0" target="6Or6VYkqD4PORaD6Xh0R-37">
          <mxGeometry width="50" height="50" relative="1" as="geometry">
            <mxPoint x="-630" y="350" as="sourcePoint" />
            <mxPoint x="-545" y="336" as="targetPoint" />
          </mxGeometry>
        </mxCell>
        <mxCell id="6Or6VYkqD4PORaD6Xh0R-84" value="" style="endArrow=none;html=1;rounded=0;exitX=1;exitY=0;exitDx=0;exitDy=0;entryX=0;entryY=1;entryDx=0;entryDy=0;" edge="1" parent="WIyWlLk6GJQsqaUBKTNV-1" source="6Or6VYkqD4PORaD6Xh0R-0" target="6Or6VYkqD4PORaD6Xh0R-36">
          <mxGeometry width="50" height="50" relative="1" as="geometry">
            <mxPoint x="-620" y="360" as="sourcePoint" />
            <mxPoint x="-580" y="245" as="targetPoint" />
          </mxGeometry>
        </mxCell>
        <mxCell id="6Or6VYkqD4PORaD6Xh0R-85" value="" style="endArrow=none;html=1;rounded=0;entryX=0.5;entryY=1;entryDx=0;entryDy=0;exitX=0.75;exitY=0;exitDx=0;exitDy=0;" edge="1" parent="WIyWlLk6GJQsqaUBKTNV-1" source="6Or6VYkqD4PORaD6Xh0R-0" target="6Or6VYkqD4PORaD6Xh0R-35">
          <mxGeometry width="50" height="50" relative="1" as="geometry">
            <mxPoint x="-610" y="370" as="sourcePoint" />
            <mxPoint x="-625" y="196" as="targetPoint" />
          </mxGeometry>
        </mxCell>
        <mxCell id="6Or6VYkqD4PORaD6Xh0R-86" value="" style="endArrow=none;html=1;rounded=0;exitX=0.5;exitY=0;exitDx=0;exitDy=0;entryX=1;entryY=1;entryDx=0;entryDy=0;" edge="1" parent="WIyWlLk6GJQsqaUBKTNV-1" source="6Or6VYkqD4PORaD6Xh0R-0" target="6Or6VYkqD4PORaD6Xh0R-33">
          <mxGeometry width="50" height="50" relative="1" as="geometry">
            <mxPoint x="-600" y="380" as="sourcePoint" />
            <mxPoint x="-700" y="185" as="targetPoint" />
          </mxGeometry>
        </mxCell>
        <mxCell id="6Or6VYkqD4PORaD6Xh0R-87" value="" style="endArrow=none;html=1;rounded=0;exitX=0.25;exitY=0;exitDx=0;exitDy=0;entryX=1;entryY=0.5;entryDx=0;entryDy=0;" edge="1" parent="WIyWlLk6GJQsqaUBKTNV-1" source="6Or6VYkqD4PORaD6Xh0R-0" target="6Or6VYkqD4PORaD6Xh0R-32">
          <mxGeometry width="50" height="50" relative="1" as="geometry">
            <mxPoint x="-590" y="390" as="sourcePoint" />
            <mxPoint x="-775" y="196" as="targetPoint" />
          </mxGeometry>
        </mxCell>
        <mxCell id="6Or6VYkqD4PORaD6Xh0R-88" value="" style="endArrow=none;html=1;rounded=0;entryX=1;entryY=0.5;entryDx=0;entryDy=0;exitX=0;exitY=0;exitDx=0;exitDy=0;" edge="1" parent="WIyWlLk6GJQsqaUBKTNV-1" source="6Or6VYkqD4PORaD6Xh0R-0" target="6Or6VYkqD4PORaD6Xh0R-31">
          <mxGeometry width="50" height="50" relative="1" as="geometry">
            <mxPoint x="-720" y="320" as="sourcePoint" />
            <mxPoint x="-830" y="235" as="targetPoint" />
          </mxGeometry>
        </mxCell>
        <mxCell id="6Or6VYkqD4PORaD6Xh0R-89" value="" style="endArrow=none;html=1;rounded=0;exitX=0;exitY=0.5;exitDx=0;exitDy=0;entryX=1;entryY=0;entryDx=0;entryDy=0;" edge="1" parent="WIyWlLk6GJQsqaUBKTNV-1" source="6Or6VYkqD4PORaD6Xh0R-0" target="6Or6VYkqD4PORaD6Xh0R-38">
          <mxGeometry width="50" height="50" relative="1" as="geometry">
            <mxPoint x="-710" y="330" as="sourcePoint" />
            <mxPoint x="-840" y="305" as="targetPoint" />
          </mxGeometry>
        </mxCell>
        <mxCell id="6Or6VYkqD4PORaD6Xh0R-90" value="" style="endArrow=none;html=1;rounded=0;exitX=0.25;exitY=0;exitDx=0;exitDy=0;entryX=1;entryY=1;entryDx=0;entryDy=0;" edge="1" parent="WIyWlLk6GJQsqaUBKTNV-1" source="6Or6VYkqD4PORaD6Xh0R-3" target="6Or6VYkqD4PORaD6Xh0R-30">
          <mxGeometry width="50" height="50" relative="1" as="geometry">
            <mxPoint x="-770" y="573" as="sourcePoint" />
            <mxPoint x="-864" y="587" as="targetPoint" />
          </mxGeometry>
        </mxCell>
        <mxCell id="6Or6VYkqD4PORaD6Xh0R-91" value="" style="endArrow=none;html=1;rounded=0;exitX=0;exitY=0;exitDx=0;exitDy=0;entryX=1;entryY=1;entryDx=0;entryDy=0;" edge="1" parent="WIyWlLk6GJQsqaUBKTNV-1" source="6Or6VYkqD4PORaD6Xh0R-3" target="6Or6VYkqD4PORaD6Xh0R-48">
          <mxGeometry width="50" height="50" relative="1" as="geometry">
            <mxPoint x="-760" y="583" as="sourcePoint" />
            <mxPoint x="-845" y="511" as="targetPoint" />
          </mxGeometry>
        </mxCell>
        <mxCell id="6Or6VYkqD4PORaD6Xh0R-92" value="" style="endArrow=none;html=1;rounded=0;exitX=0;exitY=0.25;exitDx=0;exitDy=0;entryX=1;entryY=0.5;entryDx=0;entryDy=0;" edge="1" parent="WIyWlLk6GJQsqaUBKTNV-1" source="6Or6VYkqD4PORaD6Xh0R-3" target="6Or6VYkqD4PORaD6Xh0R-49">
          <mxGeometry width="50" height="50" relative="1" as="geometry">
            <mxPoint x="-780" y="630" as="sourcePoint" />
            <mxPoint x="-925" y="561" as="targetPoint" />
          </mxGeometry>
        </mxCell>
        <mxCell id="6Or6VYkqD4PORaD6Xh0R-93" value="" style="endArrow=none;html=1;rounded=0;exitX=0;exitY=0.5;exitDx=0;exitDy=0;entryX=1;entryY=0.5;entryDx=0;entryDy=0;" edge="1" parent="WIyWlLk6GJQsqaUBKTNV-1" source="6Or6VYkqD4PORaD6Xh0R-3" target="6Or6VYkqD4PORaD6Xh0R-50">
          <mxGeometry width="50" height="50" relative="1" as="geometry">
            <mxPoint x="-770" y="640" as="sourcePoint" />
            <mxPoint x="-960" y="600" as="targetPoint" />
          </mxGeometry>
        </mxCell>
        <mxCell id="6Or6VYkqD4PORaD6Xh0R-94" value="" style="endArrow=none;html=1;rounded=0;exitX=0;exitY=1;exitDx=0;exitDy=0;entryX=1;entryY=0;entryDx=0;entryDy=0;" edge="1" parent="WIyWlLk6GJQsqaUBKTNV-1" source="6Or6VYkqD4PORaD6Xh0R-3" target="6Or6VYkqD4PORaD6Xh0R-51">
          <mxGeometry width="50" height="50" relative="1" as="geometry">
            <mxPoint x="-760" y="650" as="sourcePoint" />
            <mxPoint x="-1020" y="660" as="targetPoint" />
          </mxGeometry>
        </mxCell>
        <mxCell id="6Or6VYkqD4PORaD6Xh0R-95" value="" style="endArrow=none;html=1;rounded=0;exitX=0.25;exitY=1;exitDx=0;exitDy=0;entryX=0.5;entryY=0;entryDx=0;entryDy=0;" edge="1" parent="WIyWlLk6GJQsqaUBKTNV-1" source="6Or6VYkqD4PORaD6Xh0R-3" target="6Or6VYkqD4PORaD6Xh0R-52">
          <mxGeometry width="50" height="50" relative="1" as="geometry">
            <mxPoint x="-750" y="660" as="sourcePoint" />
            <mxPoint x="-1005" y="709" as="targetPoint" />
          </mxGeometry>
        </mxCell>
        <mxCell id="6Or6VYkqD4PORaD6Xh0R-96" value="" style="endArrow=none;html=1;rounded=0;exitX=0.5;exitY=1;exitDx=0;exitDy=0;entryX=0.5;entryY=0;entryDx=0;entryDy=0;" edge="1" parent="WIyWlLk6GJQsqaUBKTNV-1" source="6Or6VYkqD4PORaD6Xh0R-3" target="6Or6VYkqD4PORaD6Xh0R-53">
          <mxGeometry width="50" height="50" relative="1" as="geometry">
            <mxPoint x="-740" y="670" as="sourcePoint" />
            <mxPoint x="-987" y="760" as="targetPoint" />
          </mxGeometry>
        </mxCell>
        <mxCell id="6Or6VYkqD4PORaD6Xh0R-97" value="" style="endArrow=none;html=1;rounded=0;exitX=0;exitY=0.25;exitDx=0;exitDy=0;entryX=1;entryY=0.5;entryDx=0;entryDy=0;" edge="1" parent="WIyWlLk6GJQsqaUBKTNV-1" source="6Or6VYkqD4PORaD6Xh0R-70" target="6Or6VYkqD4PORaD6Xh0R-71">
          <mxGeometry width="50" height="50" relative="1" as="geometry">
            <mxPoint x="-320" y="900" as="sourcePoint" />
            <mxPoint x="-390" y="970" as="targetPoint" />
          </mxGeometry>
        </mxCell>
        <mxCell id="6Or6VYkqD4PORaD6Xh0R-98" value="" style="endArrow=none;html=1;rounded=0;exitX=0;exitY=0.5;exitDx=0;exitDy=0;entryX=1;entryY=0.5;entryDx=0;entryDy=0;" edge="1" parent="WIyWlLk6GJQsqaUBKTNV-1" source="6Or6VYkqD4PORaD6Xh0R-70" target="6Or6VYkqD4PORaD6Xh0R-72">
          <mxGeometry width="50" height="50" relative="1" as="geometry">
            <mxPoint x="-340" y="985" as="sourcePoint" />
            <mxPoint x="-407" y="945" as="targetPoint" />
          </mxGeometry>
        </mxCell>
        <mxCell id="6Or6VYkqD4PORaD6Xh0R-99" value="" style="endArrow=none;html=1;rounded=0;exitX=0;exitY=0.75;exitDx=0;exitDy=0;entryX=1;entryY=0.5;entryDx=0;entryDy=0;" edge="1" parent="WIyWlLk6GJQsqaUBKTNV-1" source="6Or6VYkqD4PORaD6Xh0R-70" target="6Or6VYkqD4PORaD6Xh0R-73">
          <mxGeometry width="50" height="50" relative="1" as="geometry">
            <mxPoint x="-330" y="995" as="sourcePoint" />
            <mxPoint x="-510" y="985" as="targetPoint" />
          </mxGeometry>
        </mxCell>
        <mxCell id="6Or6VYkqD4PORaD6Xh0R-100" value="" style="endArrow=none;html=1;rounded=0;exitX=0;exitY=1;exitDx=0;exitDy=0;entryX=1;entryY=0.5;entryDx=0;entryDy=0;" edge="1" parent="WIyWlLk6GJQsqaUBKTNV-1" source="6Or6VYkqD4PORaD6Xh0R-70" target="6Or6VYkqD4PORaD6Xh0R-74">
          <mxGeometry width="50" height="50" relative="1" as="geometry">
            <mxPoint x="-320" y="1005" as="sourcePoint" />
            <mxPoint x="-577" y="1055" as="targetPoint" />
          </mxGeometry>
        </mxCell>
        <mxCell id="6Or6VYkqD4PORaD6Xh0R-101" value="" style="endArrow=none;html=1;rounded=0;exitX=0.25;exitY=1;exitDx=0;exitDy=0;entryX=1;entryY=0.5;entryDx=0;entryDy=0;" edge="1" parent="WIyWlLk6GJQsqaUBKTNV-1" source="6Or6VYkqD4PORaD6Xh0R-70" target="6Or6VYkqD4PORaD6Xh0R-75">
          <mxGeometry width="50" height="50" relative="1" as="geometry">
            <mxPoint x="-310" y="1015" as="sourcePoint" />
            <mxPoint x="-600" y="1125" as="targetPoint" />
          </mxGeometry>
        </mxCell>
        <mxCell id="6Or6VYkqD4PORaD6Xh0R-102" value="" style="endArrow=none;html=1;rounded=0;exitX=0.5;exitY=1;exitDx=0;exitDy=0;entryX=1;entryY=0;entryDx=0;entryDy=0;" edge="1" parent="WIyWlLk6GJQsqaUBKTNV-1" source="6Or6VYkqD4PORaD6Xh0R-70" target="6Or6VYkqD4PORaD6Xh0R-76">
          <mxGeometry width="50" height="50" relative="1" as="geometry">
            <mxPoint x="-300" y="1025" as="sourcePoint" />
            <mxPoint x="-610" y="1195" as="targetPoint" />
          </mxGeometry>
        </mxCell>
        <mxCell id="6Or6VYkqD4PORaD6Xh0R-103" value="" style="endArrow=none;html=1;rounded=0;exitX=0.75;exitY=1;exitDx=0;exitDy=0;entryX=0.5;entryY=0;entryDx=0;entryDy=0;" edge="1" parent="WIyWlLk6GJQsqaUBKTNV-1" source="6Or6VYkqD4PORaD6Xh0R-70" target="6Or6VYkqD4PORaD6Xh0R-77">
          <mxGeometry width="50" height="50" relative="1" as="geometry">
            <mxPoint x="-290" y="1035" as="sourcePoint" />
            <mxPoint x="-575" y="1234" as="targetPoint" />
          </mxGeometry>
        </mxCell>
        <mxCell id="6Or6VYkqD4PORaD6Xh0R-104" value="" style="endArrow=none;html=1;rounded=0;exitX=1;exitY=1;exitDx=0;exitDy=0;entryX=0.5;entryY=0;entryDx=0;entryDy=0;" edge="1" parent="WIyWlLk6GJQsqaUBKTNV-1" source="6Or6VYkqD4PORaD6Xh0R-70" target="6Or6VYkqD4PORaD6Xh0R-78">
          <mxGeometry width="50" height="50" relative="1" as="geometry">
            <mxPoint x="-280" y="1045" as="sourcePoint" />
            <mxPoint x="-500" y="1255" as="targetPoint" />
          </mxGeometry>
        </mxCell>
        <mxCell id="6Or6VYkqD4PORaD6Xh0R-105" value="" style="endArrow=none;html=1;rounded=0;exitX=1;exitY=0.5;exitDx=0;exitDy=0;entryX=0;entryY=0;entryDx=0;entryDy=0;" edge="1" parent="WIyWlLk6GJQsqaUBKTNV-1" source="6Or6VYkqD4PORaD6Xh0R-70" target="6Or6VYkqD4PORaD6Xh0R-79">
          <mxGeometry width="50" height="50" relative="1" as="geometry">
            <mxPoint x="-270" y="1055" as="sourcePoint" />
            <mxPoint x="-400" y="1235" as="targetPoint" />
          </mxGeometry>
        </mxCell>
        <mxCell id="6Or6VYkqD4PORaD6Xh0R-106" value="" style="endArrow=none;html=1;rounded=0;entryX=0;entryY=0;entryDx=0;entryDy=0;exitX=1;exitY=0.25;exitDx=0;exitDy=0;" edge="1" parent="WIyWlLk6GJQsqaUBKTNV-1" source="6Or6VYkqD4PORaD6Xh0R-70" target="6Or6VYkqD4PORaD6Xh0R-80">
          <mxGeometry width="50" height="50" relative="1" as="geometry">
            <mxPoint x="-310" y="1045" as="sourcePoint" />
            <mxPoint x="-335" y="1214" as="targetPoint" />
          </mxGeometry>
        </mxCell>
        <mxCell id="6Or6VYkqD4PORaD6Xh0R-107" value="" style="endArrow=none;html=1;rounded=0;exitX=1;exitY=0;exitDx=0;exitDy=0;entryX=0;entryY=0.5;entryDx=0;entryDy=0;" edge="1" parent="WIyWlLk6GJQsqaUBKTNV-1" source="6Or6VYkqD4PORaD6Xh0R-70" target="6Or6VYkqD4PORaD6Xh0R-81">
          <mxGeometry width="50" height="50" relative="1" as="geometry">
            <mxPoint x="-300" y="1055" as="sourcePoint" />
            <mxPoint x="-295" y="1144" as="targetPoint" />
          </mxGeometry>
        </mxCell>
        <mxCell id="6Or6VYkqD4PORaD6Xh0R-124" value="ProjectInvitations" style="rounded=0;whiteSpace=wrap;html=1;" vertex="1" parent="WIyWlLk6GJQsqaUBKTNV-1">
          <mxGeometry x="-1000" y="940" width="120" height="60" as="geometry" />
        </mxCell>
        <mxCell id="6Or6VYkqD4PORaD6Xh0R-125" value="otp" style="ellipse;whiteSpace=wrap;html=1;" vertex="1" parent="WIyWlLk6GJQsqaUBKTNV-1">
          <mxGeometry x="-870" y="1060" width="100" height="60" as="geometry" />
        </mxCell>
        <mxCell id="6Or6VYkqD4PORaD6Xh0R-134" value="created_at" style="ellipse;whiteSpace=wrap;html=1;" vertex="1" parent="WIyWlLk6GJQsqaUBKTNV-1">
          <mxGeometry x="-840" y="1000" width="100" height="60" as="geometry" />
        </mxCell>
        <mxCell id="6Or6VYkqD4PORaD6Xh0R-135" value="is_used" style="ellipse;whiteSpace=wrap;html=1;" vertex="1" parent="WIyWlLk6GJQsqaUBKTNV-1">
          <mxGeometry x="-840" y="930" width="100" height="60" as="geometry" />
        </mxCell>
        <mxCell id="6Or6VYkqD4PORaD6Xh0R-136" value="invitation_sender" style="ellipse;whiteSpace=wrap;html=1;fontStyle=4" vertex="1" parent="WIyWlLk6GJQsqaUBKTNV-1">
          <mxGeometry x="-1120" y="890" width="100" height="60" as="geometry" />
        </mxCell>
        <mxCell id="6Or6VYkqD4PORaD6Xh0R-126" value="email" style="ellipse;whiteSpace=wrap;html=1;" vertex="1" parent="WIyWlLk6GJQsqaUBKTNV-1">
          <mxGeometry x="-980" y="1070" width="100" height="60" as="geometry" />
        </mxCell>
        <mxCell id="6Or6VYkqD4PORaD6Xh0R-127" value="project_id" style="ellipse;whiteSpace=wrap;html=1;fontStyle=4" vertex="1" parent="WIyWlLk6GJQsqaUBKTNV-1">
          <mxGeometry x="-1080" y="1040" width="100" height="60" as="geometry" />
        </mxCell>
        <mxCell id="6Or6VYkqD4PORaD6Xh0R-128" value="invitation_id" style="ellipse;whiteSpace=wrap;html=1;" vertex="1" parent="WIyWlLk6GJQsqaUBKTNV-1">
          <mxGeometry x="-1140" y="980" width="100" height="60" as="geometry" />
        </mxCell>
        <mxCell id="6Or6VYkqD4PORaD6Xh0R-129" value="" style="endArrow=none;html=1;rounded=0;exitX=0.75;exitY=1;exitDx=0;exitDy=0;entryX=0;entryY=0;entryDx=0;entryDy=0;" edge="1" source="6Or6VYkqD4PORaD6Xh0R-124" target="6Or6VYkqD4PORaD6Xh0R-125" parent="WIyWlLk6GJQsqaUBKTNV-1">
          <mxGeometry width="50" height="50" relative="1" as="geometry">
            <mxPoint x="-1110" y="930" as="sourcePoint" />
            <mxPoint x="-1026" y="916" as="targetPoint" />
          </mxGeometry>
        </mxCell>
        <mxCell id="6Or6VYkqD4PORaD6Xh0R-137" value="" style="endArrow=none;html=1;rounded=0;exitX=1;exitY=1;exitDx=0;exitDy=0;entryX=0;entryY=0.5;entryDx=0;entryDy=0;" edge="1" parent="WIyWlLk6GJQsqaUBKTNV-1" source="6Or6VYkqD4PORaD6Xh0R-136" target="6Or6VYkqD4PORaD6Xh0R-124">
          <mxGeometry width="50" height="50" relative="1" as="geometry">
            <mxPoint x="-905.6241892184967" y="911.0506572654747" as="sourcePoint" />
            <mxPoint x="-805" y="1059" as="targetPoint" />
          </mxGeometry>
        </mxCell>
        <mxCell id="6Or6VYkqD4PORaD6Xh0R-138" value="" style="endArrow=none;html=1;rounded=0;exitX=0;exitY=0.5;exitDx=0;exitDy=0;entryX=1;entryY=0.25;entryDx=0;entryDy=0;" edge="1" parent="WIyWlLk6GJQsqaUBKTNV-1" source="6Or6VYkqD4PORaD6Xh0R-135" target="6Or6VYkqD4PORaD6Xh0R-124">
          <mxGeometry width="50" height="50" relative="1" as="geometry">
            <mxPoint x="-895" y="921" as="sourcePoint" />
            <mxPoint x="-930" y="950" as="targetPoint" />
          </mxGeometry>
        </mxCell>
        <mxCell id="6Or6VYkqD4PORaD6Xh0R-139" value="" style="endArrow=none;html=1;rounded=0;exitX=0;exitY=0.5;exitDx=0;exitDy=0;entryX=1;entryY=0.5;entryDx=0;entryDy=0;" edge="1" parent="WIyWlLk6GJQsqaUBKTNV-1" source="6Or6VYkqD4PORaD6Xh0R-134" target="6Or6VYkqD4PORaD6Xh0R-124">
          <mxGeometry width="50" height="50" relative="1" as="geometry">
            <mxPoint x="-840" y="950" as="sourcePoint" />
            <mxPoint x="-870" y="965" as="targetPoint" />
          </mxGeometry>
        </mxCell>
        <mxCell id="6Or6VYkqD4PORaD6Xh0R-130" value="" style="endArrow=none;html=1;rounded=0;exitX=0.5;exitY=1;exitDx=0;exitDy=0;entryX=0.5;entryY=0;entryDx=0;entryDy=0;" edge="1" source="6Or6VYkqD4PORaD6Xh0R-124" target="6Or6VYkqD4PORaD6Xh0R-126" parent="WIyWlLk6GJQsqaUBKTNV-1">
          <mxGeometry width="50" height="50" relative="1" as="geometry">
            <mxPoint x="-1100" y="940" as="sourcePoint" />
            <mxPoint x="-1040" y="920" as="targetPoint" />
          </mxGeometry>
        </mxCell>
        <mxCell id="6Or6VYkqD4PORaD6Xh0R-131" value="" style="endArrow=none;html=1;rounded=0;entryX=0.5;entryY=0;entryDx=0;entryDy=0;" edge="1" source="6Or6VYkqD4PORaD6Xh0R-124" target="6Or6VYkqD4PORaD6Xh0R-127" parent="WIyWlLk6GJQsqaUBKTNV-1">
          <mxGeometry width="50" height="50" relative="1" as="geometry">
            <mxPoint x="-930" y="950" as="sourcePoint" />
            <mxPoint x="-930" y="920" as="targetPoint" />
          </mxGeometry>
        </mxCell>
        <mxCell id="6Or6VYkqD4PORaD6Xh0R-132" value="" style="endArrow=none;html=1;rounded=0;exitX=0;exitY=0.75;exitDx=0;exitDy=0;entryX=1;entryY=0;entryDx=0;entryDy=0;" edge="1" source="6Or6VYkqD4PORaD6Xh0R-124" target="6Or6VYkqD4PORaD6Xh0R-128" parent="WIyWlLk6GJQsqaUBKTNV-1">
          <mxGeometry width="50" height="50" relative="1" as="geometry">
            <mxPoint x="-920" y="960" as="sourcePoint" />
            <mxPoint x="-855" y="911" as="targetPoint" />
          </mxGeometry>
        </mxCell>
        <mxCell id="6Or6VYkqD4PORaD6Xh0R-140" value="Have" style="rhombus;whiteSpace=wrap;html=1;" vertex="1" parent="WIyWlLk6GJQsqaUBKTNV-1">
          <mxGeometry x="-710" y="420" width="80" height="80" as="geometry" />
        </mxCell>
        <mxCell id="6Or6VYkqD4PORaD6Xh0R-144" value="Have" style="rhombus;whiteSpace=wrap;html=1;" vertex="1" parent="WIyWlLk6GJQsqaUBKTNV-1">
          <mxGeometry x="-700" y="560" width="80" height="80" as="geometry" />
        </mxCell>
        <mxCell id="6Or6VYkqD4PORaD6Xh0R-151" value="Belong" style="rhombus;whiteSpace=wrap;html=1;" vertex="1" parent="WIyWlLk6GJQsqaUBKTNV-1">
          <mxGeometry x="-800" y="800" width="80" height="80" as="geometry" />
        </mxCell>
        <mxCell id="6Or6VYkqD4PORaD6Xh0R-154" value="Have" style="rhombus;whiteSpace=wrap;html=1;" vertex="1" parent="WIyWlLk6GJQsqaUBKTNV-1">
          <mxGeometry x="-570" y="680" width="80" height="80" as="geometry" />
        </mxCell>
        <mxCell id="6Or6VYkqD4PORaD6Xh0R-148" value="Have" style="rhombus;whiteSpace=wrap;html=1;" vertex="1" parent="WIyWlLk6GJQsqaUBKTNV-1">
          <mxGeometry x="-310" y="570" width="80" height="80" as="geometry" />
        </mxCell>
      </root>
    </mxGraphModel>
  </diagram>
</mxfile>
